<svg width="120" height="120" viewBox="0 0 120 120" fill="none" xmlns="http://www.w3.org/2000/svg">
    <g clip-path="url(#bdwhmgts5a)">
        <path d="M35.525 97.483a1.425 1.425 0 0 0-1.57 1.271l-.752 7.141a1.43 1.43 0 1 0 2.841.299l.752-7.14a1.428 1.428 0 0 0-1.271-1.57zm51.608 1.271a1.429 1.429 0 0 0-2.842.3l.752 7.14a1.428 1.428 0 0 0 2.842-.299l-.752-7.141zM41.428 87.478h-5.714a1.428 1.428 0 0 0 0 2.857h5.714a1.428 1.428 0 1 0 0-2.856zm44.284 1.429a1.428 1.428 0 0 0-1.428-1.428H78.57a1.428 1.428 0 0 0 0 2.856h5.714a1.429 1.429 0 0 0 1.428-1.428z" fill="#7210FF"/>
        <path d="M88.79 43.214a2.143 2.143 0 1 0-.001-4.286 2.143 2.143 0 0 0 0 4.286zm0-3.214a1.071 1.071 0 1 1-.001 2.143 1.071 1.071 0 0 1 0-2.143zM55.931 1.786a1.428 1.428 0 1 0 0 2.857 1.428 1.428 0 0 0 0-2.857zm0 2.143a.714.714 0 1 1 0-1.43.714.714 0 0 1 0 1.43zm-27.857 33.57a1.429 1.429 0 1 0 0 2.858 1.429 1.429 0 0 0 0-2.857zm0 2.144a.714.714 0 1 1 0-1.428.714.714 0 0 1 0 1.428zm75-35a1.429 1.429 0 1 0 0 2.857 1.429 1.429 0 0 0 0-2.857zm0 2.143a.714.714 0 1 1 0-1.43.714.714 0 0 1 0 1.43zM9.503 9.643a1.429 1.429 0 1 0-2.857 0 1.429 1.429 0 0 0 2.857 0zm-2.142 0a.714.714 0 1 1 1.428 0 .714.714 0 0 1-1.428 0z" fill="#989898"/>
        <path d="m4.92 38.937 1.062-1.397-.67-.38-.683 1.564h-.022l-.693-1.553-.682.391 1.051 1.364v.022l-1.644-.212v.76l1.655-.212v.022l-1.062 1.363.637.403.727-1.576h.022l.67 1.564.705-.402-1.073-1.341v-.023l1.687.202v-.76l-1.687.223v-.022zM31.486 8.976l-.61.785.366.232.419-.907h.012l.386.9.406-.231-.618-.773V8.97l.972.117v-.438l-.972.128v-.012l.612-.805-.386-.218-.393.9h-.013l-.399-.895-.393.226.605.785v.013l-.946-.122v.438l.953-.122v.012zM116.647 23.723v-.745l-1.655.22v-.023l1.041-1.37-.658-.372-.668 1.534h-.023l-.679-1.524-.669.385 1.031 1.337v.022l-1.613-.209v.745l1.623-.207v.022l-1.041 1.337.625.395.713-1.547h.021l.658 1.535.691-.394-1.052-1.316v-.022l1.655.197zM83.391 13.633l.899-1.182-.568-.322-.576 1.324h-.02l-.585-1.314-.578.331.89 1.154v.018l-1.39-.179v.643l1.398-.18v.02l-.898 1.153.54.34.614-1.333h.019l.568 1.323.595-.34-.908-1.135v-.019l1.428.17v-.642l-1.428.189v-.019z" fill="#7210FF"/>
        <path d="M1.429 108.214a1.429 1.429 0 1 0 0-2.857 1.429 1.429 0 0 0 0 2.857zM7.857 105.357H5.714a1.428 1.428 0 1 0 0 2.857h2.143a1.428 1.428 0 1 0 0-2.857zm106.429 0h-2.143a1.427 1.427 0 1 0 0 2.857h2.143a1.427 1.427 0 1 0 0-2.857zM118.571 108.214a1.43 1.43 0 1 0 0-2.858 1.43 1.43 0 0 0 0 2.858z" fill="#989898"/>
        <path d="M84.396 111.071h-5.934a1.433 1.433 0 0 0 0 2.857h5.934a1.428 1.428 0 0 0 1.318-1.428 1.434 1.434 0 0 0-1.318-1.429zm-42.858 0h-5.934a1.434 1.434 0 0 0 0 2.857h5.934a1.434 1.434 0 0 0 0-2.857zm32.748 0H45.714a1.429 1.429 0 0 0 0 2.857H57.1v1.429h-5.672A1.432 1.432 0 0 0 50 116.786a1.43 1.43 0 0 0 1.428 1.428h17.858a1.428 1.428 0 1 0 0-2.857H62.9v-1.429h11.386a1.428 1.428 0 1 0 0-2.857z" fill="#7210FF"/>
        <path d="M107.658 105.357h-4.845l-1.562-24.993c-.594-7.992-10.521-11.545-10.885-11.67l-17.782-7.08v-3.47c3.101-4.156 4.28-9.642 4.906-14.634.11-.886.242-1.775.372-2.666.851-5.823 1.731-11.844-2.435-17.108-3.629-4.584-7.97-7.058-13.27-7.564a23.033 23.033 0 0 0-4.418.011c-5.256.527-9.563 2.998-13.169 7.553-4.166 5.265-3.285 11.287-2.433 17.111.13.89.26 1.779.371 2.663.574 4.579 1.704 10.07 4.763 14.33v3.788L29.69 68.671c-.422.148-10.348 3.7-10.945 11.71l-1.56 24.976h-4.843a1.45 1.45 0 0 0-1.5.834 1.444 1.444 0 0 0 .363 1.677 1.435 1.435 0 0 0 1.137.346h95.316a1.428 1.428 0 0 0 1.137-.346 1.434 1.434 0 0 0 0-2.165 1.45 1.45 0 0 0-1.137-.346zm-35.042-35.23V64.7l16.749 6.668c.085.03 8.58 3.088 9.036 9.191l1.55 24.798H61.427v-2.141h1.429a1.428 1.428 0 0 0 0-2.856h-1.429v-2.857h1.429a1.428 1.428 0 1 0 0-2.856h-1.429V91.79h1.429a1.427 1.427 0 1 0 0-2.856h-1.429v-4.57L72.295 71.03c.207-.255.32-.573.32-.902zM59.933 81.676l-9.805-12.054v-8.706a16.895 16.895 0 0 0 8.541 3.638c.938.134 1.89.125 2.825-.025a17.146 17.146 0 0 0 8.233-3.424l.032 8.516-9.826 12.055zm-14.59-38.521c-.113-.904-.246-1.812-.379-2.72-.8-5.465-1.555-10.627 1.847-14.926 3.1-3.916 6.768-6.037 11.214-6.482a20.166 20.166 0 0 1 3.861-.01c4.484.427 8.18 2.552 11.301 6.492 3.4 4.298 2.646 9.46 1.848 14.923-.134.91-.266 1.819-.38 2.723-1.04 8.296-3.47 16.988-13.597 18.552a5.79 5.79 0 0 1-1.975.02c-8.04-1.178-12.278-6.906-13.74-18.572zM21.596 80.576c.455-6.12 8.952-9.179 9.096-9.23l16.579-6.64v5.422c0 .328.113.646.32.9l10.98 13.499v20.83H20.046l1.55-24.78z" fill="#989898"/>
    </g>
    <defs>
        <clipPath id="bdwhmgts5a">
            <path fill="#fff" d="M0 0h120v120H0z"/>
        </clipPath>
    </defs>
</svg>
