<svg width="120" height="120" viewBox="0 0 120 120" fill="none" xmlns="http://www.w3.org/2000/svg">
    <g clip-path="url(#ljhe1aerya)">
        <path d="M82.496 44.073a1.43 1.43 0 0 0 2.175 1.855c6.154-7.207 6.153-18.934 0-26.141a1.428 1.428 0 1 0-2.175 1.855c5.28 6.184 5.28 16.246 0 22.43z" fill="#989898"/>
        <path d="M78.23 23.927a1.428 1.428 0 0 0-.13 2.017 10.759 10.759 0 0 1 0 13.827 1.43 1.43 0 0 0 2.147 1.887 13.694 13.694 0 0 0 0-17.601 1.43 1.43 0 0 0-2.017-.13z" fill="#7210FF"/>
        <path d="M74.112 38.256a1.43 1.43 0 0 0 2.009-.217 8.526 8.526 0 0 0 0-10.363 1.428 1.428 0 1 0-2.227 1.791 5.734 5.734 0 0 1 0 6.78 1.429 1.429 0 0 0 .218 2.009zM35.33 19.787c-6.154 7.207-6.154 18.934 0 26.14a1.43 1.43 0 0 0 2.174-1.854c-5.28-6.185-5.28-16.247 0-22.431a1.43 1.43 0 1 0-2.174-1.855z" fill="#989898"/>
        <path d="M39.753 24.057a13.694 13.694 0 0 0 0 17.6 1.429 1.429 0 0 0 2.147-1.886 10.758 10.758 0 0 1 0-13.827 1.43 1.43 0 0 0-2.147-1.887z" fill="#7210FF"/>
        <path d="M45.889 27.459a1.43 1.43 0 0 0-2.01.217 8.525 8.525 0 0 0 0 10.363 1.429 1.429 0 1 0 2.227-1.792 5.734 5.734 0 0 1 0-6.78 1.427 1.427 0 0 0-.217-2.008zm-18.667-7.497a2.143 2.143 0 1 0 0-4.285 2.143 2.143 0 0 0 0 4.285zm0-3.214a1.072 1.072 0 1 1 0 2.143 1.072 1.072 0 0 1 0-2.143zM113.65 31.15a1.428 1.428 0 1 0 0 2.856 1.428 1.428 0 0 0 0-2.856zm0 2.143a.717.717 0 0 1-.66-.44.711.711 0 0 1 .155-.78.713.713 0 1 1 .505 1.22zM6.35 7.58a1.429 1.429 0 1 0 0 2.857 1.429 1.429 0 0 0 0-2.857zm0 2.143a.714.714 0 1 1 0-1.429.714.714 0 0 1 0 1.429zm76.903-7.579a1.428 1.428 0 1 0 0 2.857 1.428 1.428 0 0 0 0-2.857zm0 2.143a.714.714 0 1 1 0-1.43.714.714 0 0 1 0 1.43zM62.777 9.722a1.428 1.428 0 1 0-2.856 0 1.428 1.428 0 0 0 2.856 0zm-2.143 0a.714.714 0 1 1 1.429 0 .714.714 0 0 1-1.429 0z" fill="#989898"/>
        <path d="m11.645 33.3 1.062-1.396-.67-.38-.682 1.565h-.023l-.693-1.554-.682.392 1.05 1.363v.022L9.365 33.1v.76l1.654-.212v.022l-1.06 1.363.636.403.727-1.576h.022l.67 1.564.705-.402-1.073-1.341v-.022l1.687.201v-.76l-1.687.224V33.3zM44.843 5.484l-.61.785.366.231.419-.907h.013l.385.9.406-.23-.618-.773v-.013l.972.116v-.438l-.972.129V5.27l.612-.804-.386-.219-.393.9h-.013l-.398-.894-.394.225.606.785v.013l-.947-.122v.438l.953-.122v.013zM100.127 24.38v-.746l-1.655.22v-.023l1.041-1.37-.657-.373-.669 1.535h-.022l-.68-1.524-.669.384 1.031 1.337v.023l-1.611-.209v.746l1.622-.209v.022l-1.042 1.337.625.395.713-1.545h.022l.657 1.534.691-.394-1.052-1.316v-.022l1.655.198zM108.095 7.997l.899-1.182-.568-.321-.577 1.323h-.019l-.586-1.314-.578.331.89 1.154v.02l-1.39-.18v.642l1.399-.18v.02l-.899 1.153.54.34.615-1.333h.018l.567 1.324.597-.34-.908-1.135V8.3l1.427.17v-.643l-1.427.189v-.019z" fill="#7210FF"/>
        <path d="M1.429 107.857a1.428 1.428 0 1 0 0-2.856 1.428 1.428 0 0 0 0 2.856zM7.857 105H5.714a1.432 1.432 0 0 0-1.428 1.429 1.43 1.43 0 0 0 1.428 1.428h2.143a1.428 1.428 0 1 0 0-2.857zm106.429 0h-2.143a1.432 1.432 0 0 0-1.429 1.429 1.43 1.43 0 0 0 1.429 1.428h2.143a1.427 1.427 0 1 0 0-2.857zM118.571 107.857a1.428 1.428 0 1 0 .001-2.857 1.428 1.428 0 0 0-.001 2.857z" fill="#989898"/>
        <path d="M84.396 110.714h-5.934a1.433 1.433 0 0 0 0 2.858h5.934a1.434 1.434 0 0 0 0-2.858zm-42.858 0h-5.934a1.434 1.434 0 0 0 0 2.858h5.934a1.433 1.433 0 0 0 0-2.858zm32.748 0H45.714a1.429 1.429 0 0 0 0 2.858H57.1V115h-5.672a1.429 1.429 0 0 0 0 2.857h17.858a1.428 1.428 0 1 0 0-2.857H62.9v-1.428h11.386a1.429 1.429 0 0 0 0-2.858zM60 25a4.286 4.286 0 1 1 0-8.572A4.286 4.286 0 0 1 60 25zm0-5.714a1.428 1.428 0 1 0 0 2.856 1.428 1.428 0 0 0 0-2.856z" fill="#7210FF"/>
        <path d="M107.658 105H85.013v-1.429a4.29 4.29 0 0 0-4.288-4.285h-.573l-8.58-52.143h1.292a1.429 1.429 0 1 0 0-2.857H61.429v-5h7.147a1.429 1.429 0 0 0 0-2.858h-7.147v-5.714h2.144a1.429 1.429 0 0 0 0-2.857H61.43V24.75l.003-.002a4.205 4.205 0 0 1-2.864 0l.003.002v3.107h-2.144a1.429 1.429 0 0 0 0 2.857h2.144v5.715h-7.147a1.428 1.428 0 0 0 0 2.857h7.147v5H47.137a1.429 1.429 0 1 0 0 2.857h1.65l-8.581 52.143h-.93a4.29 4.29 0 0 0-4.288 4.285V105H12.342a1.444 1.444 0 0 0-1.5.834 1.444 1.444 0 0 0 .363 1.677 1.45 1.45 0 0 0 1.137.346h95.316a1.428 1.428 0 0 0 1.137-.346 1.437 1.437 0 0 0-.531-2.461 1.445 1.445 0 0 0-.606-.05zm-30.726-7.675L62.202 84.76l11.104-9.47 3.626 22.035zm-2.105 1.96H61.43V87.859l13.398 11.428zM61.43 81.664V60.777l10.3 12.1-10.3 8.786zM72.292 69.13 61.877 56.893l7.04-8.271 3.375 20.507zm-5.869-21.986L60 54.688l-6.423-7.545h12.846zm-15.04 1.83 6.74 7.92-9.972 11.715 3.231-19.634zm7.188 11.804v20.886l-10.3-8.786 10.3-12.1zm-11.563 14.78 10.79 9.203-14.314 12.21 3.524-21.414zm11.563 12.3v11.429H45.173l13.398-11.428zM82.154 105H37.846v-1.429a1.429 1.429 0 0 1 1.43-1.428h41.449a1.428 1.428 0 0 1 1.429 1.428V105z" fill="#989898"/>
    </g>
    <defs>
        <clipPath id="ljhe1aerya">
            <path fill="#fff" d="M0 0h120v120H0z"/>
        </clipPath>
    </defs>
</svg>
