<svg width="100" height="100" viewBox="0 0 100 100" fill="none" xmlns="http://www.w3.org/2000/svg">
    <g clip-path="url(#naz12jdnha)">
        <path d="M33.333 81.994a1.19 1.19 0 0 0 0 2.381h5.953a1.19 1.19 0 0 0 0-2.38h-5.953z" fill="#7210FF"/>
        <path d="M36.31 20.09a1.19 1.19 0 1 0 0-2.381 1.19 1.19 0 0 0 0 2.38z" fill="#989898"/>
        <path d="M57.143 20.684v-2.976a4.767 4.767 0 0 0-4.762-4.762H20.238a4.767 4.767 0 0 0-4.762 4.762v2.976h2.381v-2.976a2.384 2.384 0 0 1 2.381-2.38h32.143a2.384 2.384 0 0 1 2.38 2.38v2.976h2.382z" fill="#989898"/>
        <path d="M19.643 61.16h10.163a22.325 22.325 0 0 1-.871-2.38h-9.292a1.19 1.19 0 1 0 0 2.38z" fill="#7210FF"/>
        <path d="M19.643 55.208h8.532a22.932 22.932 0 0 1-.184-2.38h-8.348a1.19 1.19 0 0 0 0 2.38z" fill="#989898"/>
        <path d="M19.643 49.256h8.532c.104-.801.25-1.596.44-2.381h-8.972a1.19 1.19 0 1 0 0 2.381z" fill="#7210FF"/>
        <path d="M19.643 40.923a1.19 1.19 0 1 0 0 2.38h10.162c.352-.816.751-1.611 1.197-2.38h-11.36z" fill="#989898"/>
        <path d="M34.602 36.238c.445-.446.909-.865 1.384-1.268H19.643a1.19 1.19 0 1 0 0 2.381h13.925c.332-.38.673-.753 1.034-1.113z" fill="#7210FF"/>
        <path d="M58.333 65.638a15.49 15.49 0 0 0 2.381-1.701v-23.41a15.476 15.476 0 0 0-2.38-1.7v26.811z" fill="#989898"/>
        <path d="M52.976 58.78h-16.41c.39.834.855 1.63 1.39 2.38h15.02a1.19 1.19 0 0 0 0-2.38z" fill="#7210FF"/>
        <path d="M52.976 52.827H35.133c.03.8.12 1.596.272 2.381h17.571a1.19 1.19 0 0 0 0-2.38z" fill="#989898"/>
        <path d="M52.976 46.875H36.07c-.285.774-.508 1.57-.665 2.381h17.571a1.19 1.19 0 0 0 0-2.381z" fill="#7210FF"/>
        <path d="M52.976 40.923h-12.94c-.129.12-.258.24-.384.366a15.663 15.663 0 0 0-1.697 2.015h15.021a1.19 1.19 0 0 0 0-2.381z" fill="#989898"/>
        <path d="M53.731 37.074a15.577 15.577 0 0 0-7.397.277h6.642c.277-.001.544-.099.755-.277z" fill="#7210FF"/>
        <path d="m24.91 79.016 32.447.002a3.361 3.361 0 0 0 3.357-3.357v-3.195c-.773.39-1.568.734-2.38 1.03v2.165a.977.977 0 0 1-.977.976H26.12v-8.47a3.361 3.361 0 0 0-3.357-3.358h-8.476V26.422a.977.977 0 0 1 .976-.976h42.095a.977.977 0 0 1 .976.976v4.546c.813.297 1.608.64 2.381 1.03v-5.576a3.361 3.361 0 0 0-3.357-3.357H15.262a3.361 3.361 0 0 0-3.357 3.357V66c.003.315.128.617.349.842L24.087 78.67c.22.216.515.34.823.346zm-1.172-4.062-3.879-3.877-3.888-3.887h6.79a.977.977 0 0 1 .977.976v6.788zM72.024 6.4a1.786 1.786 0 1 0 0-3.572 1.786 1.786 0 0 0 0 3.572zm0-2.679a.893.893 0 1 1 0 1.787.893.893 0 0 1 0-1.787zM19.643 8.185a1.19 1.19 0 1 0 0 2.38 1.19 1.19 0 0 0 0-2.38zm0 1.785a.595.595 0 1 1 0-1.19.595.595 0 0 1 0 1.19zm14.286-7.44a1.19 1.19 0 1 0 0 2.38 1.19 1.19 0 0 0 0-2.38zm0 1.786a.595.595 0 1 1 0-1.19.595.595 0 0 1 0 1.19zm60.714 21.13a1.19 1.19 0 1 0 0 2.381 1.19 1.19 0 0 0 0-2.38zm0 1.786a.595.595 0 1 1 0-1.19.595.595 0 0 1 0 1.19zM5.953 4.911a1.19 1.19 0 1 0-2.381 0 1.19 1.19 0 0 0 2.38 0zm-1.786 0a.595.595 0 1 1 1.19 0 .595.595 0 0 1-1.19 0z" fill="#989898"/>
        <path d="m51.9 8.035.885-1.164-.559-.316-.568 1.303h-.019l-.577-1.294-.569.326.877 1.136v.019L50 7.868V8.5l1.379-.177v.019l-.886 1.136.531.335.606-1.313h.019l.558 1.304.588-.335-.894-1.118v-.019l1.405.168v-.633l-1.405.186v-.019zM4.008 23.157l-.51.654.307.193.349-.756h.01l.322.751.338-.194-.515-.643v-.01l.81.096v-.364l-.81.107v-.011l.51-.67-.322-.183-.327.75h-.011l-.332-.745-.328.188.505.655v.01l-.79-.101v.364l.794-.102v.01zM78.572 19.323v-.62l-1.38.182v-.019l.869-1.141-.549-.31-.557 1.278h-.019l-.566-1.27-.558.32.86 1.115v.018l-1.343-.174v.621l1.351-.173v.018l-.868 1.114.521.33.594-1.289h.018l.549 1.28.575-.33-.877-1.096v-.018l1.38.164zM93.716 4.367l.749-.985-.473-.268-.48 1.103h-.017l-.488-1.095-.48.276.74.961v.015l-1.159-.149v.536l1.167-.15v.016l-.749.961.45.284.512-1.111h.015l.473 1.103.497-.284-.757-.945v-.016l1.19.142v-.536l-1.19.157v-.015z" fill="#7210FF"/>
        <path d="M1.19 89.137a1.19 1.19 0 1 0 0-2.381 1.19 1.19 0 0 0 0 2.38zM6.548 86.756H4.762a1.19 1.19 0 1 0 0 2.38h1.786a1.19 1.19 0 1 0 0-2.38zm88.69 0h-1.785a1.19 1.19 0 0 0 0 2.38h1.785a1.19 1.19 0 0 0 0-2.38zM98.81 89.137a1.19 1.19 0 1 0 0-2.381 1.19 1.19 0 0 0 0 2.38z" fill="#989898"/>
        <path d="M70.33 91.518h-4.945a1.194 1.194 0 0 0 0 2.381h4.945a1.194 1.194 0 0 0 0-2.38zm-35.715 0H29.67a1.194 1.194 0 0 0 0 2.381h4.945a1.195 1.195 0 0 0 0-2.38zm27.29 0h-23.81a1.19 1.19 0 0 0 0 2.381h9.488v1.19h-4.726a1.19 1.19 0 0 0 0 2.381h14.881a1.19 1.19 0 0 0 0-2.38h-5.322v-1.191h9.489a1.19 1.19 0 1 0 0-2.38z" fill="#7210FF"/>
        <path d="M89.715 86.756h-2.29a4.816 4.816 0 0 0-.743-5.858L73.715 67.931a4.816 4.816 0 0 0-5.876-.733l-1.843-1.843a20.242 20.242 0 1 0-1.648 1.718l1.808 1.808a4.815 4.815 0 0 0 .734 5.875l12 12H56.497a4.727 4.727 0 0 0 .645-2.381v-2.976h-2.381v2.976a2.383 2.383 0 0 1-2.381 2.38H20.238a2.384 2.384 0 0 1-2.38-2.38v-8.566l-2.382-2.38v10.946c0 .837.223 1.658.644 2.38h-5.835a1.201 1.201 0 1 0 0 2.382h79.43a1.2 1.2 0 1 0 0-2.381zM63.222 64.859a17.858 17.858 0 1 1 0-25.254 17.801 17.801 0 0 1 0 25.254zm18.318 21.18L68.573 73.074a2.445 2.445 0 0 1 3.458-3.458l12.967 12.967a2.445 2.445 0 0 1-3.458 3.458z" fill="#989898"/>
    </g>
    <defs>
        <clipPath id="naz12jdnha">
            <path fill="#fff" d="M0 0h100v100H0z"/>
        </clipPath>
    </defs>
</svg>
