<svg width="25" height="26" viewBox="0 0 25 26" fill="none" xmlns="http://www.w3.org/2000/svg">
    <circle cx="12" cy="13" r="9" fill="#fff"/>
    <g clip-path="url(#egf22k6dra)">
        <path fill-rule="evenodd" clip-rule="evenodd" d="M9.926 6.566c-.745 0-1.459.289-1.985.802L5.4 9.847v1.135c0 .801.353 1.522.915 2.023A2.703 2.703 0 0 0 5.4 15.03v1.134l2.54 2.479c.527.514 1.241.802 1.986.802.821 0 1.56-.344 2.074-.893a2.832 2.832 0 0 0 2.074.893c.745 0 1.459-.288 1.985-.802l2.541-2.479V15.03c0-.802-.353-1.523-.916-2.024.563-.5.916-1.222.916-2.024V9.848l-2.54-2.479a2.844 2.844 0 0 0-1.986-.802c-.822 0-1.56.344-2.074.893a2.832 2.832 0 0 0-2.074-.893zm3.974 6.44a2.823 2.823 0 0 1-.093-.088L12 11.155l-1.807 1.763a2.82 2.82 0 0 1-.093.087l.093.087L12 14.855l1.807-1.763c.03-.03.062-.059.093-.087zm-1.167 3.157v.542c0 .723.6 1.308 1.341 1.308.356 0 .697-.138.948-.383l2.111-2.06v-.541c0-.723-.6-1.308-1.34-1.308-.356 0-.697.137-.949.383l-2.11 2.06zm-1.466 0-2.111-2.06a1.358 1.358 0 0 0-.949-.382c-.74 0-1.34.585-1.34 1.308v.542l2.11 2.06c.252.244.593.382.949.382.74 0 1.34-.585 1.34-1.308v-.542zm0-6.858v.542l-2.111 2.06a1.358 1.358 0 0 1-.949.383c-.74 0-1.34-.586-1.34-1.308v-.542l2.11-2.06c.252-.245.593-.383.949-.383.74 0 1.34.586 1.34 1.308zm3.577 2.601-2.11-2.059v-.542c0-.722.6-1.308 1.34-1.308.356 0 .697.138.948.383l2.111 2.06v.542c0 .722-.6 1.308-1.34 1.308-.356 0-.697-.138-.949-.383z" fill="#FF630B"/>
    </g>
    <path d="M15.465 25.625a.886.886 0 0 1-.849-.678c-.116-.484.151-.98.617-1.114 2.296-.632 4.328-2.037 5.777-3.997A11.504 11.504 0 0 0 23.244 13c0-6.173-4.825-11.196-10.756-11.196-5.035 0-8.337 3.062-9.883 4.914h3.418c.477 0 .872.411.872.908 0 .496-.372.92-.86.92H.884a.853.853 0 0 1-.244-.037 1.03 1.03 0 0 1-.28-.145.787.787 0 0 1-.244-.278A1.08 1.08 0 0 1 0 7.71V2.118c0-.496.395-.908.872-.908s.872.412.872.908v2.893C3.64 2.893 7.21 0 12.5 0 19.395 0 25 5.834 25 13.012c0 5.907-3.826 11.088-9.314 12.589a1.37 1.37 0 0 1-.22.024zm-3.79.375c-.024 0-.059 0-.082-.012a11.764 11.764 0 0 1-3.628-.847.89.89 0 0 1-.483-.48.943.943 0 0 1-.017-.695c.175-.46.686-.702 1.128-.52 1 .412 2.058.654 3.128.738h.012c.465.025.813.436.813.92v.049a.935.935 0 0 1-.277.6.865.865 0 0 1-.595.247zm-6.408-2.602a.842.842 0 0 1-.546-.194 12.911 12.911 0 0 1-2.535-2.845.901.901 0 0 1-.149-.678.905.905 0 0 1 .128-.33.867.867 0 0 1 .242-.25.856.856 0 0 1 .65-.14.88.88 0 0 1 .56.37 10.821 10.821 0 0 0 2.197 2.445c.198.17.326.423.326.702a.959.959 0 0 1-.187.58.853.853 0 0 1-.686.34zM1.384 17.49a.856.856 0 0 1-.826-.63A13.449 13.449 0 0 1 0 13.012c0-.496.395-.908.872-.908s.872.412.872.908c0 1.126.163 2.24.477 3.305.023.084.035.181.035.278 0 .4-.244.738-.605.86a1.017 1.017 0 0 1-.267.036z" fill="#7210FF"/>
    <defs>
        <clipPath id="egf22k6dra">
            <path fill="#fff" transform="translate(5.4 6.4)" d="M0 0h13.2v13.2H0z"/>
        </clipPath>
    </defs>
</svg>
