<svg width="120" height="120" viewBox="0 0 120 120" fill="none" xmlns="http://www.w3.org/2000/svg">
    <g clip-path="url(#tiivvescva)">
        <path d="M34.776 36.675a2.143 2.143 0 1 0 0-4.286 2.143 2.143 0 0 0 0 4.286zm0-3.214a1.072 1.072 0 1 1 0 2.143 1.072 1.072 0 0 1 0-2.143zm77.782 7.363a1.429 1.429 0 1 0 0 2.857 1.429 1.429 0 0 0 0-2.857zm0 2.143a.712.712 0 0 1-.701-.854.718.718 0 0 1 .974-.52.718.718 0 0 1 .231 1.165.712.712 0 0 1-.504.209zm-39.483-15.47a1.429 1.429 0 1 0 0 2.857 1.429 1.429 0 0 0 0-2.857zm0 2.142a.714.714 0 1 1 0-1.428.714.714 0 0 1 0 1.428zm13.354-19.303a1.429 1.429 0 1 0 0 2.857 1.429 1.429 0 0 0 0-2.857zm0 2.143a.714.714 0 1 1 0-1.428.714.714 0 0 1 0 1.428zM12.36 20.354a1.428 1.428 0 1 0-2.857 0 1.428 1.428 0 0 0 2.857 0zm-2.143 0a.714.714 0 1 1 1.428 0 .714.714 0 0 1-1.428 0z" fill="#989898"/>
        <path d="M7.777 49.648 8.84 48.25l-.67-.38-.682 1.564h-.023l-.692-1.553-.683.39 1.051 1.364v.023l-1.643-.213v.76l1.654-.212v.022L6.089 51.38l.637.402.727-1.576h.022l.67 1.565.705-.403-1.073-1.34v-.023l1.687.201v-.76l-1.687.224v-.022zM52.666 5.168l-.612.785.367.231.419-.908h.013l.385.902.406-.232-.618-.772V5.16l.972.115V4.84l-.972.129v-.013l.612-.804-.386-.219-.393.9h-.013l-.399-.894-.393.226.606.785v.012l-.947-.122v.437l.953-.121v.013zM116.449 17.192v-.745l-1.655.22v-.023l1.041-1.37-.657-.373-.669 1.535h-.022l-.679-1.524-.67.384 1.031 1.338v.022l-1.611-.209v.745l1.622-.208v.022l-1.042 1.337.625.395.713-1.546h.022l.657 1.535.691-.394-1.052-1.316v-.022l1.655.197zM93.906 44.959l.899-1.183-.567-.32-.577 1.323h-.02l-.585-1.315-.578.332.89 1.153v.019l-1.39-.18v.644l1.399-.18v.019l-.898 1.153.538.341.615-1.334h.019l.568 1.324.595-.34-.908-1.135v-.02l1.428.172v-.643l-1.428.188v-.018z" fill="#7210FF"/>
        <path d="M1.429 106.068a1.429 1.429 0 1 0 0-2.857 1.429 1.429 0 0 0 0 2.857zM7.857 103.211H5.714a1.428 1.428 0 1 0 0 2.857h2.143a1.428 1.428 0 1 0 0-2.857z" fill="#989898"/>
        <path d="M84.396 108.925h-5.934a1.433 1.433 0 0 0 0 2.857h5.934a1.428 1.428 0 0 0 1.318-1.428 1.434 1.434 0 0 0-1.318-1.429zm-42.858 0h-5.934a1.434 1.434 0 0 0 0 2.857h5.934a1.434 1.434 0 0 0 0-2.857zm32.748 0H45.714a1.429 1.429 0 0 0 0 2.857H57.1v1.429h-5.672A1.432 1.432 0 0 0 50 114.64a1.43 1.43 0 0 0 1.428 1.428h17.858a1.428 1.428 0 1 0 0-2.857H62.9v-1.429h11.386a1.428 1.428 0 1 0 0-2.857z" fill="#7210FF"/>
        <path d="M29.073 57.263a5.704 5.704 0 1 0 0 11.407 5.704 5.704 0 0 0 0-11.407zm1.631 8.045a2.852 2.852 0 1 1 .704-3.97 2.828 2.828 0 0 1-.704 3.97z" fill="#989898"/>
        <path d="M37.618 69.01a2.837 2.837 0 0 0-1.174 1.84 1.422 1.422 0 0 0-.022.25l-.003 14.419a1.427 1.427 0 0 0 2.438 1.01c.268-.268.419-.632.419-1.01l.003-14.161 3.577.636V69.64c0-.184.016-.363.027-.543l-3.132-.557a2.837 2.837 0 0 0-2.133.47zm38.443-9.583a1.428 1.428 0 0 0-.692-1.898L52.765 47a1.374 1.374 0 0 0-.22-.082 2.852 2.852 0 0 0-3.57 2.25 1.442 1.442 0 0 0-.022.288l.313 11.898a8.527 8.527 0 0 1 2.161-.287h.69l-.3-11.357 22.346 10.407a1.429 1.429 0 0 0 1.898-.691z" fill="#7210FF"/>
        <path d="M32.818 90.768a5.7 5.7 0 0 0 7.943 1.413l2.094-1.464V87.23l-3.731 2.61a2.841 2.841 0 0 1-3.962-.705l-17.51-25.127a2.855 2.855 0 0 1 .705-3.97l39.659-27.742a2.84 2.84 0 0 1 3.962.706l17.509 25.126a2.845 2.845 0 0 1 .18 2.94h3.028a5.692 5.692 0 0 0-.864-4.573L64.32 31.368a5.706 5.706 0 0 0-4.679-2.443 5.669 5.669 0 0 0-3.264 1.03L16.719 57.697a5.72 5.72 0 0 0-1.41 7.944l17.509 25.127z" fill="#989898"/>
        <path d="M87.235 75.847a1.474 1.474 0 0 0-.134-.192 2.857 2.857 0 0 0-4.223-.2c-.068.068-.129.143-.182.223L71.199 93.106l-7.037-7.038a2.926 2.926 0 0 0-4.041 0c-.06.06-.113.124-.16.192l-8.277 11.847a1.428 1.428 0 1 0 2.343 1.637l8.13-11.64 8.26 8.26a1.429 1.429 0 0 0 2.203-.223l12.283-18.62L97.336 98.93a1.429 1.429 0 0 0 2.47-1.435l-12.57-21.647z" fill="#7210FF"/>
        <path d="M58.57 81.068a5.714 5.714 0 1 0-5.715-5.714 5.72 5.72 0 0 0 5.715 5.714zm0-8.571a2.857 2.857 0 1 1 0 5.714 2.857 2.857 0 0 1 0-5.714zm55.716 30.714h-2.143a1.43 1.43 0 0 0-1.01 2.439c.267.268.631.418 1.01.418h2.143a1.43 1.43 0 1 0 0-2.857zM118.572 106.068a1.428 1.428 0 1 0 0-2.856 1.428 1.428 0 0 0 0 2.856z" fill="#989898"/>
        <path d="M107.658 103.211h-2.717a5.668 5.668 0 0 0 .773-2.857V69.64A5.72 5.72 0 0 0 100 63.925H51.427a5.72 5.72 0 0 0-5.715 5.715v30.714c0 1.004.267 1.99.774 2.857H12.342a1.444 1.444 0 0 0-1.5.834 1.446 1.446 0 0 0 .363 1.677 1.436 1.436 0 0 0 1.137.346h95.316a1.428 1.428 0 0 0 1.137-.346 1.44 1.44 0 0 0-1.137-2.511zm-56.231 0a2.857 2.857 0 0 1-2.857-2.857V69.64a2.857 2.857 0 0 1 2.857-2.858H100a2.858 2.858 0 0 1 2.857 2.858v30.714a2.856 2.856 0 0 1-2.857 2.857H51.427z" fill="#989898"/>
    </g>
    <defs>
        <clipPath id="tiivvescva">
            <path fill="#fff" d="M0 0h120v120H0z"/>
        </clipPath>
    </defs>
</svg>
